<svg width="414" height="139" viewBox="0 0 414 139" fill="none" xmlns="http://www.w3.org/2000/svg">
  <path d="M347.876 38.5478C309.609 32.7056 269.657 30.0256 229.381 29.4497C209.045 29.1579 188.602 29.4054 168.126 30.0568C148.846 30.6711 129.463 31.4826 110.177 33.3917C91.2114 35.273 72.2237 38.2831 54.4625 43.5655C38.7165 48.2486 22.0541 54.9946 13.6429 64.7182C9.42013 69.6014 8.14004 74.8891 10.5616 79.8442C13.0102 84.8525 18.1555 89.202 23.8664 92.9185C34.4657 99.8104 48.5481 104.456 63.4133 107.591C78.8401 110.845 95.2825 112.493 111.883 113.39C132.596 114.509 153.617 114.544 174.654 114.065C195.454 113.589 216.316 112.726 237.157 111.698C257.619 110.686 278.119 109.369 298.551 107.25C319.109 105.119 339.616 102.182 359.613 97.9016C368.578 95.9847 377.682 93.9229 386.201 91.2148C392.987 89.0592 400.246 86.1152 403.939 81.8846C413.699 70.7097 391.84 61.5753 379.484 56.9231C363.966 51.0763 346.398 47.0113 329.053 43.2007C293.29 35.342 255.701 29.8051 216.846 27.7711C176.095 25.6415 133.974 27.4683 93.0131 34.2311C83.0057 35.8845 73.1061 37.8559 63.3272 40.1079C60.288 40.8066 58.7016 38.1125 61.7513 37.4095C103.261 27.8573 146.851 23.7039 189.584 23.989C230.748 24.262 270.928 28.7265 309.111 35.9137C327.763 39.4235 346.214 43.4685 363.777 48.3913C372.363 50.7976 380.721 53.5152 388.406 56.7808C395.724 59.885 403.114 63.5044 407.522 68.3096C411.531 72.6773 412.656 77.9913 408.321 82.9576C404.604 87.2137 398.054 90.3351 391.314 92.7295C382.893 95.7203 373.685 97.8447 364.657 99.8498C354.397 102.129 343.977 104.062 333.491 105.716C290.984 112.412 247.662 114.388 204.81 116.049C163.908 117.636 121.702 118.87 82.4007 113.88C66.1436 111.816 50.3714 108.573 36.6504 103.287C23.0095 98.0338 9.36421 89.9557 5.41715 79.9849C1.34685 69.7074 10.9363 59.7152 24.0722 52.3847C38.554 44.303 57.2165 38.9594 75.344 35.4152C94.5405 31.6655 114.263 29.7667 133.875 28.6078C154.751 27.3724 175.659 26.7546 196.463 26.4886C238.517 25.9494 280.418 27.3564 320.986 31.9114C330.788 33.0142 340.493 34.3103 350.104 35.7763C353.068 36.2313 350.818 38.9984 347.876 38.5478Z" fill="#00A0D1"></path>
</svg>